<svg xmlns="http://www.w3.org/2000/svg" width="31" height="30" viewBox="0 0 31 30" fill="none">
  <path d="M4.25 28.75V20C4.25 18.2708 4.85958 16.7971 6.07875 15.5787C7.29792 14.3604 8.77167 13.7508 10.5 13.75H11.75V3.75C11.75 3.0625 11.995 2.47417 12.485 1.985C12.975 1.49583 13.5633 1.25083 14.25 1.25H16.75C17.4375 1.25 18.0262 1.495 18.5163 1.985C19.0063 2.475 19.2508 3.06333 19.25 3.75V13.75H20.5C22.2292 13.75 23.7033 14.3596 24.9225 15.5787C26.1417 16.7979 26.7508 18.2717 26.75 20V28.75H4.25ZM6.75 26.25H9.25V22.5C9.25 22.1458 9.37 21.8492 9.61 21.61C9.85 21.3708 10.1467 21.2508 10.5 21.25C10.8533 21.2492 11.1504 21.3692 11.3913 21.61C11.6321 21.8508 11.7517 22.1475 11.75 22.5V26.25H14.25V22.5C14.25 22.1458 14.37 21.8492 14.61 21.61C14.85 21.3708 15.1467 21.2508 15.5 21.25C15.8533 21.2492 16.1504 21.3692 16.3913 21.61C16.6321 21.8508 16.7517 22.1475 16.75 22.5V26.25H19.25V22.5C19.25 22.1458 19.37 21.8492 19.61 21.61C19.85 21.3708 20.1467 21.2508 20.5 21.25C20.8533 21.2492 21.1504 21.3692 21.3912 21.61C21.6321 21.8508 21.7517 22.1475 21.75 22.5V26.25H24.25V20C24.25 18.9583 23.8854 18.0729 23.1562 17.3437C22.4271 16.6146 21.5417 16.25 20.5 16.25H10.5C9.45833 16.25 8.57292 16.6146 7.84375 17.3437C7.11458 18.0729 6.75 18.9583 6.75 20V26.25ZM16.75 13.75V3.75H14.25V13.75H16.75Z" fill="#CBE9F4"/>
</svg>