<svg xmlns="http://www.w3.org/2000/svg" width="31" height="30" viewBox="0 0 31 30" fill="none">
  <path d="M15.5 27.5C22.4036 27.5 28 21.9036 28 15C28 8.09644 22.4036 2.5 15.5 2.5C8.59644 2.5 3 8.09644 3 15C3 21.9036 8.59644 27.5 15.5 27.5Z" stroke="#CBE9F4" stroke-width="1.5" stroke-linecap="round" stroke-linejoin="round"/>
  <path d="M10.5 18.75C11.0822 19.5262 11.8371 20.1562 12.7049 20.5902C13.5728 21.0241 14.5297 21.25 15.5 21.25C16.4703 21.25 17.4272 21.0241 18.2951 20.5902C19.1629 20.1562 19.9178 19.5262 20.5 18.75M19.25 10C19.25 10 18 11.25 18 12.5C18.9375 11.25 20.8125 11.25 21.75 12.5M11.75 10C11.75 10 13 11.25 13 12.5C12.0625 11.25 10.1875 11.25 9.25 12.5" stroke="#CBE9F4" stroke-width="1.5" stroke-linecap="round" stroke-linejoin="round"/>
</svg>