<svg xmlns="http://www.w3.org/2000/svg" width="40" height="41" viewBox="0 0 40 41" fill="none">
  <path d="M33.75 12.1683H6.25C5.55964 12.1683 5 12.728 5 13.4183C5 14.1087 5.55964 14.6683 6.25 14.6683H33.75C34.4404 14.6683 35 14.1087 35 13.4183C35 12.728 34.4404 12.1683 33.75 12.1683Z" fill="#CBE9F4"/>
  <path d="M28.75 19.2517H6.25C5.55964 19.2517 5 19.8114 5 20.5017C5 21.1921 5.55964 21.7517 6.25 21.7517H28.75C29.4404 21.7517 30 21.1921 30 20.5017C30 19.8114 29.4404 19.2517 28.75 19.2517Z" fill="#CBE9F4"/>
  <path d="M33.75 26.3317H6.25C5.55964 26.3317 5 26.8913 5 27.5817C5 28.272 5.55964 28.8317 6.25 28.8317H33.75C34.4404 28.8317 35 28.272 35 27.5817C35 26.8913 34.4404 26.3317 33.75 26.3317Z" fill="#CBE9F4"/>
</svg>