<svg xmlns="http://www.w3.org/2000/svg" width="33" height="36" viewBox="0 0 33 36" fill="none">
  <g clip-path="url(#clip0_149_1081)">
    <path d="M16.5003 15.8667C15.0858 15.8667 13.7293 15.3048 12.7291 14.3046C11.7289 13.3044 11.167 11.9478 11.167 10.5333C11.167 9.11885 11.7289 7.7623 12.7291 6.7621C13.7293 5.76191 15.0858 5.2 16.5003 5.2C17.9148 5.2 19.2714 5.76191 20.2716 6.7621C21.2718 7.7623 21.8337 9.11885 21.8337 10.5333C21.8337 11.9478 21.2718 13.3044 20.2716 14.3046C19.2714 15.3048 17.9148 15.8667 16.5003 15.8667ZM16.5003 7.33334C14.7297 7.33334 13.3003 8.76267 13.3003 10.5333C13.3003 12.304 14.7297 13.7333 16.5003 13.7333C18.271 13.7333 19.7003 12.304 19.7003 10.5333C19.7003 8.76267 18.271 7.33334 16.5003 7.33334Z" fill="#CBE9F4"/>
    <path d="M29.3 24.4C28.7027 24.4 28.2333 23.9307 28.2333 23.3333C28.2333 22.736 28.7027 22.2667 29.3 22.2667C29.8973 22.2667 30.3667 21.7973 30.3667 21.2C30.3667 19.7855 29.8048 18.429 28.8046 17.4288C27.8044 16.4286 26.4478 15.8667 25.0333 15.8667H22.9C22.3027 15.8667 21.8333 15.3973 21.8333 14.8C21.8333 14.2027 22.3027 13.7333 22.9 13.7333C24.6707 13.7333 26.1 12.304 26.1 10.5333C26.1 8.76267 24.6707 7.33334 22.9 7.33334C22.3027 7.33334 21.8333 6.864 21.8333 6.26667C21.8333 5.66934 22.3027 5.2 22.9 5.2C24.3145 5.2 25.671 5.76191 26.6712 6.7621C27.6714 7.7623 28.2333 9.11885 28.2333 10.5333C28.2333 11.856 27.764 13.0507 26.9533 13.9893C30.132 14.8427 32.5 17.744 32.5 21.2C32.5 22.9707 31.0707 24.4 29.3 24.4ZM3.7 24.4C1.92933 24.4 0.5 22.9707 0.5 21.2C0.5 17.744 2.84667 14.8427 6.04667 13.9893C5.25733 13.0507 4.76667 11.856 4.76667 10.5333C4.76667 9.11885 5.32857 7.7623 6.32876 6.7621C7.32896 5.76191 8.68551 5.2 10.1 5.2C10.6973 5.2 11.1667 5.66934 11.1667 6.26667C11.1667 6.864 10.6973 7.33334 10.1 7.33334C8.32933 7.33334 6.9 8.76267 6.9 10.5333C6.9 12.304 8.32933 13.7333 10.1 13.7333C10.6973 13.7333 11.1667 14.2027 11.1667 14.8C11.1667 15.3973 10.6973 15.8667 10.1 15.8667H7.96667C6.55218 15.8667 5.19562 16.4286 4.19543 17.4288C3.19524 18.429 2.63333 19.7855 2.63333 21.2C2.63333 21.7973 3.10267 22.2667 3.7 22.2667C4.29733 22.2667 4.76667 22.736 4.76667 23.3333C4.76667 23.9307 4.29733 24.4 3.7 24.4ZM22.9 30.8H10.1C8.32933 30.8 6.9 29.3707 6.9 27.6V25.4667C6.9 21.3493 10.2493 18 14.3667 18H18.6333C22.7507 18 26.1 21.3493 26.1 25.4667V27.6C26.1 29.3707 24.6707 30.8 22.9 30.8ZM14.3667 20.1333C12.9522 20.1333 11.5956 20.6952 10.5954 21.6954C9.59524 22.6956 9.03333 24.0522 9.03333 25.4667V27.6C9.03333 28.1973 9.50267 28.6667 10.1 28.6667H22.9C23.4973 28.6667 23.9667 28.1973 23.9667 27.6V25.4667C23.9667 24.0522 23.4048 22.6956 22.4046 21.6954C21.4044 20.6952 20.0478 20.1333 18.6333 20.1333H14.3667Z" fill="#CBE9F4"/>
  </g>
  <defs>
    <clipPath id="clip0_149_1081">
      <rect width="32" height="34.1333" fill="white" transform="translate(0.5 0.933334)"/>
    </clipPath>
  </defs>
</svg>